<svg width="256" height="256" viewBox="0 0 256 256" fill="none" xmlns="http://www.w3.org/2000/svg">
<rect width="256" height="256" rx="48" fill="white"/>
<path d="M212.082 103.226C213.177 104.321 213.605 105.918 213.204 107.414L191.496 188.43C191.095 189.926 189.926 191.095 188.43 191.496L107.414 213.204C105.918 213.605 104.321 213.177 103.226 212.082L88.0116 196.868C86.3181 195.174 86.3181 192.429 88.0116 190.735L116.184 162.563C117.368 161.378 119.129 160.982 120.707 161.545L131.458 165.38C133.033 165.942 134.754 165.936 136.325 165.363L156.217 158.112C158.129 157.415 159.655 155.939 160.415 154.052L172.213 116.747C173.672 113.125 169.111 110.109 166.349 112.871L140.712 138.508C139.311 139.909 137.04 139.909 135.639 138.508L117.492 120.361C116.091 118.96 116.091 116.689 117.492 115.288L143.129 89.6509C145.891 86.8894 142.875 82.3284 139.253 83.7873L101.948 95.5853C100.061 96.3454 98.5847 97.8712 97.8879 99.7829L90.6369 119.675C90.0643 121.246 90.0583 122.967 90.62 124.542L94.455 135.293C95.0178 136.871 94.6215 138.632 93.4369 139.816L65.2648 167.988C63.5713 169.682 60.8256 169.682 59.1321 167.988L43.9182 152.774C42.8227 151.679 42.3948 150.082 42.7958 148.586L64.5038 67.5702C64.9048 66.0737 66.0737 64.9048 67.5702 64.5038L148.586 42.7958C150.082 42.3948 151.679 42.8227 152.774 43.9182L212.082 103.226Z" fill="#1557FF"/>
</svg>
