<svg width="26" height="26" viewBox="0 0 26 26" fill="none" xmlns="http://www.w3.org/2000/svg">
<path d="M20.5 9.6665C20.5 13.8082 13 23.8332 13 23.8332C13 23.8332 5.5 13.8082 5.5 9.6665C5.5 5.52484 8.85833 2.1665 13 2.1665C17.1417 2.1665 20.5 5.52484 20.5 9.6665Z" stroke="white" stroke-width="2" stroke-linecap="square"/>
<path d="M12.9998 7.09277C12.4264 7.09277 11.8765 7.32054 11.4711 7.72598C11.0657 8.13141 10.8379 8.68129 10.8379 9.25466C10.8379 9.82803 11.0657 10.3779 11.4711 10.7833C11.8765 11.1888 12.4264 11.4166 12.9998 11.4166C13.5731 11.4166 14.123 11.1888 14.5285 10.7833C14.9339 10.3779 15.1617 9.82803 15.1617 9.25466C15.1617 8.68129 14.9339 8.13141 14.5285 7.72598C14.123 7.32054 13.5731 7.09277 12.9998 7.09277V7.09277Z" stroke="white" stroke-width="2" stroke-linecap="square"/>
</svg>
