<svg width="196" height="43" viewBox="0 0 196 43" fill="none" xmlns="http://www.w3.org/2000/svg">
<path d="M38.4823 16.2095C38.71 16.4373 38.799 16.7693 38.7156 17.0804L34.2021 33.9252C34.1187 34.2364 33.8757 34.4794 33.5645 34.5628L16.7197 39.0763C16.4086 39.1597 16.0766 39.0708 15.8488 38.843L12.6855 35.6797C12.3333 35.3276 12.3333 34.7567 12.6855 34.4045L18.543 28.547C18.7893 28.3007 19.1555 28.2183 19.4835 28.3353L21.7189 29.1327C22.0463 29.2495 22.4042 29.2482 22.7308 29.1292L26.8668 27.6215C27.2643 27.4766 27.5815 27.1698 27.7396 26.7774L30.1926 19.0209C30.4959 18.2677 29.5476 17.6408 28.9734 18.2149L23.6429 23.5455C23.3516 23.8368 22.8794 23.8368 22.5882 23.5455L18.815 19.7723C18.5237 19.4811 18.5237 19.0089 18.815 18.7176L24.1455 13.387C24.7197 12.8129 24.0928 11.8645 23.3396 12.1679L15.5831 14.6209C15.1907 14.779 14.8838 15.0962 14.7389 15.4937L13.2313 19.6296C13.1123 19.9563 13.111 20.3142 13.2278 20.6416L14.0252 22.8769C14.1422 23.205 14.0598 23.5711 13.8135 23.8174L7.95593 29.675C7.60382 30.0271 7.03292 30.0271 6.68081 29.675L3.51753 26.5117C3.28975 26.284 3.20079 25.952 3.28416 25.6408L7.79771 8.79599C7.88109 8.48484 8.12412 8.2418 8.43528 8.15843L25.2801 3.64488C25.5912 3.56151 25.9232 3.65046 26.151 3.87824L38.4823 16.2095Z" fill="#1557FF"/>
<path d="M46.66 20.7266C46.66 19.2893 47.012 17.9619 47.716 16.7446C48.4347 15.5273 49.4027 14.5666 50.62 13.8626C51.8373 13.1439 53.1647 12.7846 54.602 12.7846C56.0833 12.7846 57.4473 13.1659 58.694 13.9286C59.9407 14.6913 60.9087 15.7033 61.598 16.9646L57.924 18.9446C57.6013 18.3433 57.1393 17.8666 56.538 17.5146C55.9513 17.1479 55.306 16.9646 54.602 16.9646C53.9273 16.9646 53.2967 17.1333 52.71 17.4706C52.138 17.8079 51.6833 18.2699 51.346 18.8566C51.0087 19.4286 50.84 20.0519 50.84 20.7266C50.84 21.4013 51.0087 22.0319 51.346 22.6186C51.6833 23.1906 52.138 23.6453 52.71 23.9826C53.2967 24.3199 53.9273 24.4886 54.602 24.4886C55.3207 24.4886 55.9807 24.3053 56.582 23.9386C57.1833 23.5573 57.638 23.0513 57.946 22.4206L61.642 24.4226C60.9673 25.7133 59.9993 26.7473 58.738 27.5246C57.4767 28.2873 56.098 28.6686 54.602 28.6686C53.1647 28.6686 51.8373 28.3166 50.62 27.6126C49.4027 26.8939 48.4347 25.9259 47.716 24.7086C47.012 23.4913 46.66 22.1639 46.66 20.7266ZM77.0044 28.3606H72.5384L71.6364 25.8746H66.6864L65.7844 28.3606H61.3184L66.9284 12.9606H71.3944L77.0044 28.3606ZM69.1724 19.0986L68.1384 21.9146H70.1844L69.1724 19.0986ZM85.9883 28.3606L83.3703 23.5866H82.0723V28.3606H77.8923V12.9606H84.5363C85.5043 12.9606 86.3916 13.1953 87.1983 13.6646C88.0196 14.1339 88.6649 14.7793 89.1343 15.6006C89.6183 16.4073 89.8603 17.2946 89.8603 18.2626C89.8603 19.1426 89.6549 19.9639 89.2443 20.7266C88.8483 21.4893 88.2983 22.1199 87.5943 22.6186L90.7843 28.3606H85.9883ZM82.0723 16.9206V19.6266H84.5363C84.9176 19.6266 85.2403 19.4946 85.5043 19.2306C85.7683 18.9519 85.9003 18.6293 85.9003 18.2626C85.9003 17.8959 85.7683 17.5806 85.5043 17.3166C85.2403 17.0526 84.9176 16.9206 84.5363 16.9206H82.0723ZM108.504 28.3606L105.886 23.5866H104.588V28.3606H100.408V12.9606H107.052C108.02 12.9606 108.907 13.1953 109.714 13.6646C110.535 14.1339 111.181 14.7793 111.65 15.6006C112.134 16.4073 112.376 17.2946 112.376 18.2626C112.376 19.1426 112.171 19.9639 111.76 20.7266C111.364 21.4893 110.814 22.1199 110.11 22.6186L113.3 28.3606H108.504ZM104.588 16.9206V19.6266H107.052C107.433 19.6266 107.756 19.4946 108.02 19.2306C108.284 18.9519 108.416 18.6293 108.416 18.2626C108.416 17.8959 108.284 17.5806 108.02 17.3166C107.756 17.0526 107.433 16.9206 107.052 16.9206H104.588ZM118.467 22.4646V24.4006H124.275V28.3606H114.287V12.9606H124.165V16.9206H118.467V18.5046H123.615V22.4646H118.467ZM132.304 12.9606C133.272 12.9606 134.159 13.1953 134.966 13.6646C135.787 14.1339 136.432 14.7793 136.902 15.6006C137.386 16.4073 137.628 17.2946 137.628 18.2626C137.628 19.2306 137.386 20.1253 136.902 20.9466C136.432 21.7533 135.787 22.3986 134.966 22.8826C134.159 23.3519 133.272 23.5866 132.304 23.5866H130.434V28.3606H126.254V12.9606H132.304ZM132.304 19.6266C132.685 19.6266 133.008 19.4946 133.272 19.2306C133.536 18.9519 133.668 18.6293 133.668 18.2626C133.668 17.8959 133.536 17.5806 133.272 17.3166C133.008 17.0526 132.685 16.9206 132.304 16.9206H130.434V19.6266H132.304ZM151.77 28.3606H147.304L146.402 25.8746H141.452L140.55 28.3606H136.084L141.694 12.9606H146.16L151.77 28.3606ZM143.938 19.0986L142.904 21.9146H144.95L143.938 19.0986ZM153.088 28.3606V12.9606H157.268V28.3606H153.088ZM167.994 28.3606L165.376 23.5866H164.078V28.3606H159.898V12.9606H166.542C167.51 12.9606 168.397 13.1953 169.204 13.6646C170.025 14.1339 170.671 14.7793 171.14 15.6006C171.624 16.4073 171.866 17.2946 171.866 18.2626C171.866 19.1426 171.661 19.9639 171.25 20.7266C170.854 21.4893 170.304 22.1199 169.6 22.6186L172.79 28.3606H167.994ZM164.078 16.9206V19.6266H166.542C166.923 19.6266 167.246 19.4946 167.51 19.2306C167.774 18.9519 167.906 18.6293 167.906 18.2626C167.906 17.8959 167.774 17.5806 167.51 17.3166C167.246 17.0526 166.923 16.9206 166.542 16.9206H164.078ZM189.906 12.9606H194.9L189.862 20.7486L194.79 28.3606H189.796L186.936 23.8946L184.054 28.3606H179.06L183.988 20.7486L178.95 12.9606H183.944L186.936 17.5806L189.906 12.9606Z" fill="black"/>
<path d="M96.3312 13.2466H99.0812L93.8672 28.8006H91.1172L96.3312 13.2466Z" fill="#1557FF"/>
</svg>
